<svg xmlns="http://www.w3.org/2000/svg" viewBox="0 0 500 300" width="500" height="300">
  <defs>
    <style>
      .body-line { fill: none; stroke: #1a1a1a; stroke-linecap: round; stroke-linejoin: round; }
      .torso { stroke-width: 6; }
      .limb { stroke-width: 4.5; }
      .head { stroke-width: 5; fill: none; }
    </style>
  </defs>

  <!-- === ЛЕВЫЙ ЧЕЛОВЕЧЕК === -->
  <circle cx="180" cy="100" r="24" class="body-line head"/>
  <path d="M180 124 C178 145, 177 160, 176 185" class="body-line torso"/>
  <!-- Левая рука вверх -->
  <path d="M178 135 C150 120, 135 90, 140 60" class="body-line limb"/>
  <!-- Ноги -->
  <path d="M176 185 C165 210, 158 235, 155 260" class="body-line limb"/>
  <path d="M176 185 C185 210, 190 235, 195 260" class="body-line limb"/>

  <!-- === ПРАВЫЙ ЧЕЛОВЕЧЕК === -->
  <circle cx="320" cy="100" r="24" class="body-line head"/>
  <path d="M320 124 C322 145, 323 160, 324 185" class="body-line torso"/>
  <!-- Правая рука вверх -->
  <path d="M322 135 C350 120, 365 90, 360 60" class="body-line limb"/>
  <!-- Ноги -->
  <path d="M324 185 C335 210, 342 235, 345 260" class="body-line limb"/>
  <path d="M324 185 C315 210, 310 235, 305 260" class="body-line limb"/>

  <!-- === ОБНИМАЮЩИЕ РУКИ — ЕДИНАЯ ЛИНИЯ === -->
  <!-- От левого плеча до правого плеча одной плавной дугой -->
  <path d="M178 138 C220 160, 280 160, 322 138" class="body-line limb"/>
</svg>
