<svg xmlns="http://www.w3.org/2000/svg" viewBox="0 0 700 350" width="700" height="350">
  <defs>
    <style>
      .body-line { fill: none; stroke: #1a2a4a; stroke-linecap: round; stroke-linejoin: round; }
      .torso { stroke-width: 6; }
      .limb { stroke-width: 4.5; }
      .head { stroke-width: 5; }
      .rope { stroke-width: 4; stroke: #1a2a4a; }
      .tension { stroke-width: 2.5; stroke: #1a2a4a; }
    </style>
  </defs>

  <!-- ЛЕВЫЙ ЧЕЛОВЕЧЕК (плавный наклон влево) -->
  <circle cx="130" cy="90" r="24" class="body-line head" />
  <!-- Корпус плавной дугой -->
  <path d="M130 114 C118 140 102 165 92 195" class="body-line torso" />
  <!-- Левая рука: от плеча плавно вниз-влево -->
  <path d="M112 145 C95 150 75 154 55 158 C48 159 44 162 45 165" class="body-line limb" />
  <!-- Правая рука: от плеча плавно вперёд-вправо -->
  <path d="M112 145 C125 149 138 153 150 157 C156 159 158 162 155 165" class="body-line limb" />
  <!-- Левая нога: плавный изгиб вперёд-влево -->
  <path d="M92 195 C78 215 64 240 56 270 C52 282 55 286 60 284" class="body-line limb" />
  <!-- Правая нога: плавный изгиб назад-вправо -->
  <path d="M92 195 C104 215 116 240 122 270 C126 282 123 286 118 284" class="body-line limb" />

  <!-- ПРАВЫЙ ЧЕЛОВЕЧЕК (плавный наклон вправо) -->
  <circle cx="570" cy="90" r="24" class="body-line head" />
  <path d="M570 114 C582 140 598 165 608 195" class="body-line torso" />
  <!-- Правая рука: вправо-вниз -->
  <path d="M588 145 C605 150 625 154 645 158 C652 159 656 162 655 165" class="body-line limb" />
  <!-- Левая рука: влево-вперёд -->
  <path d="M588 145 C575 149 562 153 550 157 C544 159 542 162 545 165" class="body-line limb" />
  <!-- Левая нога: вперёд-вправо -->
  <path d="M608 195 C622 215 636 240 644 270 C648 282 645 286 640 284" class="body-line limb" />
  <!-- Правая нога: назад-влево -->
  <path d="M608 195 C596 215 584 240 578 270 C574 282 577 286 582 284" class="body-line limb" />

  <!-- КАНАТ (слитный с разрывом, все переходы плавные) -->
  <path d="M45 165 
           C90 167 140 165 185 162 
           C192 161 196 155 200 148 
           C204 155 208 162 215 164 
           C220 158 225 150 230 155 
           C235 162 240 165 248 163 
           C300 165 350 163 400 160 
           C407 159 411 155 415 148 
           C419 155 423 162 430 164 
           C435 158 440 150 445 155 
           C450 162 455 165 462 163 
           C510 165 560 163 655 165" class="rope" />

  <!-- ЛИНИИ НАПРЯЖЕНИЯ (плавные, не ломаные) -->
  <path d="M88 58 C78 48 68 40 62 35" class="tension" />
  <path d="M94 68 C84 60 74 54 68 50" class="tension" />
  <path d="M612 58 C622 48 632 40 638 35" class="tension" />
  <path d="M606 68 C616 60 626 54 632 50" class="tension" />
</svg>
