<svg xmlns="http://www.w3.org/2000/svg" viewBox="0 0 600 300" width="600" height="300">
  <defs>
    <style>
      .body-line { fill: none; stroke: #1a2a4a; stroke-linecap: round; stroke-linejoin: round; }
      .torso { stroke-width: 6; }
      .limb { stroke-width: 4.5; }
      .head { stroke-width: 5; fill: none; }
      .rope { stroke-width: 4; stroke: #1a2a4a; fill: none; }
      .anger { stroke-width: 2.5; stroke: #1a2a4a; }
    </style>
  </defs>

  <!-- ЛЕВЫЙ ЧЕЛОВЕЧЕК -->
  <circle cx="160" cy="100" r="24" class="body-line head"/>
  <path d="M160 124 C158 145, 157 160, 156 185" class="body-line torso"/>
  <path d="M158 135 C130 140, 110 145, 95 150" class="body-line limb"/>
  <path d="M158 135 C175 140, 190 148, 200 152" class="body-line limb"/>
  <path d="M156 185 C145 210, 138 235, 135 260" class="body-line limb"/>
  <path d="M156 185 C165 210, 170 235, 175 260" class="body-line limb"/>
  <path d="M120 70 L110 60 M125 80 L108 75 M118 55 L108 45" class="anger"/>

  <!-- ПРАВЫЙ ЧЕЛОВЕЧЕК -->
  <circle cx="440" cy="100" r="24" class="body-line head"/>
  <path d="M440 124 C442 145, 443 160, 444 185" class="body-line torso"/>
  <path d="M442 135 C470 140, 490 145, 505 150" class="body-line limb"/>
  <path d="M442 135 C425 140, 410 148, 400 152" class="body-line limb"/>
  <path d="M444 185 C455 210, 462 235, 465 260" class="body-line limb"/>
  <path d="M444 185 C435 210, 430 235, 425 260" class="body-line limb"/>
  <path d="M480 70 L490 60 M475 80 L492 75 M482 55 L492 45" class="anger"/>

  <!-- КАНАТ СЛИТНЫЙ (одна линия от 95 до 505) с разрывом-зигзагом посередине -->
  <path d="M95 150 
           C130 153, 170 156, 210 155 
           L225 145 L235 158 L245 147 L255 156 
           L265 148 L275 157 L285 149 L295 155 
           C330 156, 370 153, 505 150" class="rope"/>
</svg>
