<svg xmlns="http://www.w3.org/2000/svg" viewBox="0 0 700 350" width="700" height="350">
  <defs>
    <style>
      .body-line { fill: none; stroke: #1a2a4a; stroke-linecap: round; stroke-linejoin: round; }
      .torso { stroke-width: 6; }
      .limb { stroke-width: 4.5; }
      .head { stroke-width: 5; }
      .rope { stroke-width: 4; stroke: #1a2a4a; }
      .tear { stroke-width: 2; stroke: #1a2a4a; }
    </style>
  </defs>

  <!-- ЛЕВЫЙ ЧЕЛОВЕЧЕК (плавный наклон влево) -->
  <circle cx="130" cy="90" r="24" class="body-line head" />
  <path d="M130 114 C118 140 102 165 92 195" class="body-line torso" />
  <path d="M112 145 C95 150 75 154 55 158 C48 159 44 162 45 165" class="body-line limb" />
  <path d="M112 145 C125 149 138 153 150 157 C156 159 158 162 155 165" class="body-line limb" />
  <path d="M92 195 C78 215 64 240 56 270 C52 282 55 286 60 284" class="body-line limb" />
  <path d="M92 195 C104 215 116 240 122 270 C126 282 123 286 118 284" class="body-line limb" />

  <!-- ПРАВЫЙ ЧЕЛОВЕЧЕК (плавный наклон вправо) -->
  <circle cx="570" cy="90" r="24" class="body-line head" />
  <path d="M570 114 C582 140 598 165 608 195" class="body-line torso" />
  <path d="M588 145 C605 150 625 154 645 158 C652 159 656 162 655 165" class="body-line limb" />
  <path d="M588 145 C575 149 562 153 550 157 C544 159 542 162 545 165" class="body-line limb" />
  <path d="M608 195 C622 215 636 240 644 270 C648 282 645 286 640 284" class="body-line limb" />
  <path d="M608 195 C596 215 584 240 578 270 C574 282 577 286 582 284" class="body-line limb" />

  <!-- КАНАТ: от левой руки до правой, с ОДНИМ ЗИГЗАГОМ посередине -->
  <!-- Идёт от x=45 до x=655, в центре (x=350) резкий излом -->
  <path d="M45 165 
           C100 167 180 163 280 160 
           L330 150 L370 170 
           C420 163 500 165 600 163 
           L655 165" class="rope" />

  <!-- ЛИНИИ НАДРЫВА (трещины, волокна) от зигзага -->
  <!-- Вверх и вниз от места разрыва -->
  <line x1="340" y1="155" x2="330" y2="135" class="tear" />
  <line x1="350" y1="158" x2="350" y2="130" class="tear" />
  <line x1="360" y1="162" x2="370" y2="140" class="tear" />
  <line x1="345" y1="165" x2="335" y2="185" class="tear" />
  <line x1="355" y1="168" x2="365" y2="190" class="tear" />
  <line x1="365" y1="170" x2="380" y2="180" class="tear" />

  <!-- Небольшие динамические линии (искры напряжения) -->
  <line x1="325" y1="145" x2="315" y2="135" class="tear" />
  <line x1="375" y1="145" x2="385" y2="135" class="tear" />

  <!-- ЛИНИИ НАПРЯЖЕНИЯ У ГОЛОВ (плавные) -->
  <path d="M88 58 C78 48 68 40 62 35" class="tear" />
  <path d="M94 68 C84 60 74 54 68 50" class="tear" />
  <path d="M612 58 C622 48 632 40 638 35" class="tear" />
  <path d="M606 68 C616 60 626 54 632 50" class="tear" />
</svg>
