<svg xmlns="http://www.w3.org/2000/svg" viewBox="0 0 500 300" width="500" height="300">
  <defs>
    <style>
      .body-line { fill: none; stroke: #1a1a1a; stroke-linecap: round; stroke-linejoin: round; }
      .torso { stroke-width: 6; }
      .limb { stroke-width: 4.5; }
      .head { stroke-width: 5; fill: none; }
    </style>
  </defs>

  <!-- === ЛЕВЫЙ ЧЕЛОВЕЧЕК === -->
  <!-- Голова (центр 200) -->
  <circle cx="200" cy="100" r="24" class="body-line head"/>

  <!-- Шея и туловище -->
  <path d="M200 124 C198 145, 197 160, 196 185" class="body-line torso"/>

  <!-- Левая рука (поднята вверх) -->
  <path d="M198 135 C170 120, 155 90, 160 60" class="body-line limb"/>

  <!-- Правая рука (обнимает правого, доходит до его плеча) -->
  <path d="M198 138 C210 125, 225 115, 252 110" class="body-line limb"/>

  <!-- Ноги -->
  <path d="M196 185 C185 210, 178 235, 175 260" class="body-line limb"/>
  <path d="M196 185 C205 210, 210 235, 215 260" class="body-line limb"/>

  <!-- === ПРАВЫЙ ЧЕЛОВЕЧЕК === -->
  <!-- Голова (центр 248, расстояние между центрами 48 = касание голов) -->
  <circle cx="248" cy="100" r="24" class="body-line head"/>

  <!-- Туловище -->
  <path d="M248 124 C250 145, 251 160, 252 185" class="body-line torso"/>

  <!-- Правая рука (поднята вверх) -->
  <path d="M250 135 C278 120, 293 90, 288 60" class="body-line limb"/>

  <!-- Левая рука (обнимает левого, доходит до его плеча) -->
  <path d="M250 138 C238 125, 223 115, 200 110" class="body-line limb"/>

  <!-- Ноги -->
  <path d="M252 185 C263 210, 270 235, 273 260" class="body-line limb"/>
  <path d="M252 185 C243 210, 238 235, 233 260" class="body-line limb"/>
</svg>
