<svg xmlns="http://www.w3.org/2000/svg" viewBox="0 0 700 350" width="700" height="350">
  <defs>
    <style>
      .body-line { fill: none; stroke: #1a2a4a; stroke-linecap: round; stroke-linejoin: round; }
      .torso { stroke-width: 6; }
      .limb { stroke-width: 4.5; }
      .head { stroke-width: 5; fill: none; }
      .rope { stroke-width: 4; stroke: #1a2a4a; fill: none; }
      .tension { stroke-width: 2; stroke: #1a2a4a; }
    </style>
  </defs>

  <!-- ЛЕВЫЙ ЧЕЛОВЕЧЕК (тянет влево, корпус наклонён влево-назад) -->
  <circle cx="130" cy="85" r="24" class="body-line head"/>
  <!-- Тело с сильным наклоном влево (x уменьшается от 130 до 100) -->
  <path d="M130 109 C120 135, 105 160, 95 190" class="body-line torso"/>
  <!-- Левая рука тянет канат назад влево -->
  <path d="M110 145 C85 150, 60 155, 45 160" class="body-line limb"/>
  <!-- Правая рука тянет -->
  <path d="M110 145 C125 150, 140 155, 155 160" class="body-line limb"/>
  <!-- Ноги: левая выпрямлена влево-вперёд, правая упирается -->
  <path d="M95 190 C80 215, 65 240, 55 270" class="body-line limb"/>
  <path d="M95 190 C105 215, 120 240, 130 270" class="body-line limb"/>
  <!-- Чёрточки злости и напряжения -->
  <path d="M90 55 L75 45 M95 65 L78 60 M88 40 L75 30" class="tension"/>
  <path d="M50 265 L40 260 M60 275 L45 275" class="tension"/>

  <!-- ПРАВЫЙ ЧЕЛОВЕЧЕК (тянет вправо, корпус наклонён вправо-назад) -->
  <circle cx="570" cy="85" r="24" class="body-line head"/>
  <path d="M570 109 C580 135, 595 160, 605 190" class="body-line torso"/>
  <!-- Правая рука тянет назад вправо -->
  <path d="M590 145 C615 150, 640 155, 655 160" class="body-line limb"/>
  <!-- Левая рука тянет -->
  <path d="M590 145 C575 150, 560 155, 545 160" class="body-line limb"/>
  <!-- Ноги -->
  <path d="M605 190 C620 215, 635 240, 645 270" class="body-line limb"/>
  <path d="M605 190 C595 215, 580 240, 570 270" class="body-line limb"/>
  <!-- Чёрточки злости -->
  <path d="M610 55 L625 45 M605 65 L622 60 M612 40 L625 30" class="tension"/>
  <path d="M650 265 L660 260 M640 275 L655 275" class="tension"/>

  <!-- КАНАТ (слитный с разрывом посередине) -->
  <!-- Левая часть каната от левой руки (x=45) до разрыва -->
  <path d="M45 160 C80 163, 130 165, 180 163 L195 150 L205 165 L215 148 L225 162 L235 150 L245 163" class="rope"/>
  <!-- Правая часть каната от разрыва до правой руки (x=655) -->
  <path d="M275 163 C310 165, 350 165, 390 163 L405 150 L415 165 L425 148 L435 162 L445 150 L455 163 C490 165, 540 163, 655 160" class="rope"/>
  
  <!-- Линии разрыва (трещины) -->
  <line x1="250" y1="155" x2="240" y2="140" class="tension"/>
  <line x1="260" y1="165" x2="270" y2="180" class="tension"/>
  <line x1="280" y1="158" x2="295" y2="145" class="tension"/>
</svg>
