<svg xmlns="http://www.w3.org/2000/svg" viewBox="0 0 500 300" width="500" height="300">
  <defs>
    <style>
      .body-line { fill: none; stroke: #1a1a1a; stroke-linecap: round; stroke-linejoin: round; }
      .torso { stroke-width: 6; }
      .limb { stroke-width: 4.5; }
      .head { stroke-width: 5; fill: none; }
    </style>
  </defs>

  <!-- === ЛЕВЫЙ ЧЕЛОВЕЧЕК === -->
  <!-- Голова -->
  <circle cx="190" cy="100" r="24" class="body-line head"/>

  <!-- Шея и туловище -->
  <path d="M190 124 C188 145, 187 160, 186 185" class="body-line torso"/>

  <!-- Левая рука (поднята вверх) -->
  <path d="M188 135 C160 120, 145 90, 150 60" class="body-line limb"/>

  <!-- Правая рука (обнимает правого человечка, доходит до его плеча) -->
  <path d="M188 138 C200 125, 215 115, 228 108" class="body-line limb"/>

  <!-- Ноги -->
  <path d="M186 185 C175 210, 168 235, 165 260" class="body-line limb"/>
  <path d="M186 185 C195 210, 200 235, 205 260" class="body-line limb"/>

  <!-- === ПРАВЫЙ ЧЕЛОВЕЧЕК === -->
  <!-- Голова (касается левой головы? нет, но плечи касаются) -->
  <circle cx="310" cy="100" r="24" class="body-line head"/>

  <!-- Туловище -->
  <path d="M310 124 C312 145, 313 160, 314 185" class="body-line torso"/>

  <!-- Правая рука (поднята вверх) -->
  <path d="M312 135 C340 120, 355 90, 350 60" class="body-line limb"/>

  <!-- Левая рука (обнимает левого человечка, доходит до его плеча) -->
  <path d="M312 138 C300 125, 285 115, 272 108" class="body-line limb"/>

  <!-- Ноги -->
  <path d="M314 185 C325 210, 332 235, 335 260" class="body-line limb"/>
  <path d="M314 185 C305 210, 300 235, 295 260" class="body-line limb"/>
</svg>
